<?xml version="1.0" standalone="no"?>
<!DOCTYPE svg PUBLIC "-//W3C//DTD SVG 20010904//EN"
 "http://www.w3.org/TR/2001/REC-SVG-20010904/DTD/svg10.dtd">
<svg version="1.0" xmlns="http://www.w3.org/2000/svg"
 width="317.000000pt" height="343.000000pt" viewBox="0 0 317.000000 343.000000"
 preserveAspectRatio="xMidYMid meet">

<g transform="translate(0.000000,343.000000) scale(0.100000,-0.100000)"
fill="#000000" stroke="none">
<path d="M1546 3393 c-11 -3 -74 -38 -140 -77 -67 -40 -128 -75 -136 -79 -8
-4 -28 -16 -45 -27 -16 -11 -41 -25 -55 -31 -14 -5 -39 -21 -57 -35 -17 -13
-38 -24 -46 -24 -8 0 -20 -7 -27 -15 -7 -8 -17 -15 -23 -15 -6 0 -18 -6 -26
-14 -9 -8 -45 -30 -81 -48 -36 -19 -85 -47 -110 -63 -24 -15 -74 -44 -110 -62
-36 -19 -101 -57 -145 -84 -44 -28 -89 -54 -100 -60 -11 -5 -27 -13 -35 -18
-8 -5 -55 -33 -105 -62 -112 -65 -123 -75 -146 -124 -18 -38 -19 -84 -19 -818
0 -748 1 -780 19 -820 11 -23 28 -49 38 -58 26 -21 285 -176 436 -259 9 -6 25
-15 35 -20 9 -6 24 -13 32 -17 8 -4 59 -33 113 -65 53 -32 99 -58 102 -58 2 0
38 -20 78 -45 41 -25 77 -45 81 -45 3 0 25 -14 48 -30 22 -17 45 -30 49 -30 5
0 53 -27 108 -60 55 -33 103 -60 106 -60 3 0 24 -12 48 -27 93 -60 111 -67
172 -67 71 0 84 6 372 181 66 39 157 91 204 116 46 24 137 76 202 115 65 40
120 72 124 72 3 0 42 23 88 50 46 28 86 50 90 50 4 0 44 24 88 54 45 29 114
70 152 91 80 43 121 83 135 134 14 50 13 1543 0 1593 -14 49 -50 91 -103 118
-23 12 -61 35 -85 51 -24 16 -46 29 -49 29 -3 0 -40 21 -82 46 -99 59 -92 56
-191 110 -69 38 -174 98 -320 184 -8 5 -37 21 -65 36 -27 14 -64 37 -82 50
-17 13 -34 24 -37 24 -4 0 -145 80 -176 100 -8 6 -22 13 -30 17 -8 4 -49 27
-90 51 -59 35 -86 45 -130 48 -30 1 -64 0 -74 -3z m150 -94 c32 -17 66 -37 74
-43 8 -7 32 -21 53 -31 20 -11 37 -23 37 -27 0 -3 9 -10 21 -13 11 -4 54 -27
95 -51 63 -37 138 -79 228 -128 12 -6 40 -24 63 -39 24 -15 46 -27 50 -27 3 0
14 -6 22 -14 15 -12 40 -27 166 -96 22 -12 54 -30 70 -41 17 -10 41 -23 54
-29 13 -6 35 -19 50 -29 14 -10 49 -31 76 -45 58 -31 67 -36 157 -94 37 -23
72 -51 78 -62 6 -12 10 -284 10 -797 l0 -779 -29 -32 c-17 -17 -34 -32 -40
-32 -5 0 -29 -13 -53 -29 -24 -16 -59 -37 -78 -48 -19 -10 -61 -36 -92 -56
-32 -21 -68 -42 -80 -47 -13 -6 -36 -19 -53 -30 -16 -11 -43 -26 -60 -35 -55
-27 -129 -70 -203 -115 -79 -49 -160 -94 -232 -131 -25 -13 -94 -53 -154 -89
-340 -204 -318 -199 -449 -110 -25 16 -48 30 -52 30 -4 0 -33 15 -64 34 -31
19 -78 46 -106 61 -27 15 -69 41 -93 56 -24 16 -46 29 -49 29 -4 0 -110 61
-173 100 -8 5 -35 19 -60 32 -25 12 -61 33 -80 46 -19 13 -44 28 -55 33 -11 5
-47 25 -80 44 -33 19 -69 40 -80 45 -11 6 -33 19 -50 30 -16 11 -43 26 -60 34
-84 41 -222 135 -242 165 l-23 34 0 762 0 762 23 34 c22 34 46 49 363 234 198
115 198 115 274 156 25 14 72 42 104 63 32 21 68 42 80 47 12 5 28 13 36 18
49 31 172 100 210 120 25 12 95 53 155 91 130 81 154 85 241 39z"/>
<path d="M1555 3185 c-22 -14 -49 -29 -60 -35 -11 -6 -42 -24 -70 -40 -27 -17
-63 -37 -80 -45 -16 -9 -43 -24 -60 -35 -16 -10 -50 -30 -75 -43 -25 -14 -61
-34 -80 -46 -19 -11 -66 -39 -105 -61 -38 -23 -77 -45 -85 -50 -8 -5 -22 -11
-30 -15 -20 -8 -54 -28 -71 -42 -8 -5 -36 -23 -64 -38 -27 -15 -93 -52 -145
-82 -52 -30 -103 -59 -113 -64 -82 -44 -160 -92 -179 -111 -17 -17 -18 -54
-18 -741 0 -563 3 -727 12 -739 13 -16 131 -91 172 -109 12 -5 28 -13 36 -19
30 -20 220 -130 225 -130 3 0 35 -18 71 -41 37 -22 77 -45 88 -50 12 -5 28
-13 36 -19 40 -25 155 -93 174 -101 12 -5 28 -13 36 -19 40 -25 155 -93 174
-101 12 -5 28 -13 36 -19 91 -60 222 -129 237 -123 10 4 46 24 81 45 34 21 64
38 67 38 3 0 50 27 106 60 55 33 103 60 106 60 3 0 39 20 80 45 40 25 77 45
80 45 4 0 14 6 22 14 9 8 48 31 86 52 89 47 98 52 159 91 28 18 54 33 58 33 4
0 59 32 123 70 64 39 118 70 122 70 3 0 43 23 89 51 l84 50 0 744 0 743 -52
33 c-29 18 -73 44 -97 57 -24 13 -58 33 -75 43 -17 10 -38 22 -46 26 -8 4 -55
31 -105 61 -49 30 -98 58 -110 63 -11 5 -27 13 -35 19 -40 25 -155 93 -174
101 -12 5 -28 13 -36 19 -40 25 -155 93 -174 101 -12 5 -28 13 -36 19 -80 51
-326 190 -338 190 -4 -1 -25 -12 -47 -25z m286 -313 c74 -40 242 -134 269
-152 8 -6 24 -14 35 -19 11 -5 84 -47 163 -95 79 -47 145 -86 147 -86 5 0 148
-82 175 -100 8 -6 24 -14 35 -19 44 -20 86 -66 91 -101 5 -31 1 -40 -32 -72
-54 -55 -81 -52 -203 22 -55 33 -105 60 -111 60 -5 0 -10 4 -10 9 0 11 -69 36
-76 28 -8 -7 -6 -1035 1 -1047 4 -6 68 -10 159 -10 181 0 207 -4 241 -38 35
-35 42 -68 20 -108 -37 -69 -17 -67 -534 -65 l-465 2 -32 24 c-56 43 -54 122
5 162 22 15 55 19 206 23 l180 5 0 595 0 594 -40 27 c-22 15 -71 44 -110 64
-245 131 -270 149 -280 196 -12 54 43 127 96 129 10 0 41 -13 70 -28z m-357 4
c63 -26 62 -13 64 -880 3 -853 3 -850 -55 -896 -47 -37 -113 -20 -143 38 -8
17 -11 153 -11 515 0 271 -2 511 -5 534 -6 43 -6 43 -23 20 -10 -12 -27 -47
-40 -77 -12 -30 -26 -64 -31 -75 -25 -57 -49 -115 -65 -160 -10 -27 -22 -54
-25 -60 -4 -5 -11 -21 -15 -35 -20 -64 -60 -132 -86 -145 -65 -34 -116 -10
-193 91 -26 35 -55 72 -65 82 -9 11 -37 47 -63 81 -27 33 -52 61 -58 61 -6 0
-10 -134 -10 -384 0 -211 -3 -398 -6 -415 -9 -46 -58 -91 -97 -91 -40 0 -81
34 -96 79 -7 23 -11 208 -11 585 0 615 -2 600 69 637 31 16 37 17 70 3 45 -18
35 -7 256 -286 64 -82 118 -148 120 -148 6 0 45 71 45 81 0 6 14 40 30 76 17
35 30 67 30 69 0 3 9 26 21 52 28 65 34 79 59 142 11 30 25 64 30 75 5 11 18
43 30 70 12 28 25 59 30 70 4 11 25 61 45 110 56 139 64 152 92 174 30 25 61
26 107 7z"/>
</g>
</svg>
